<svg xmlns="http://www.w3.org/2000/svg" viewBox="0 0 406.81 462.47"><defs><style>.cls-1{fill:#3f00fc;}</style></defs><g id="레이어_2" data-name="레이어 2"><g id="레이어_1-2" data-name="레이어 1"><path class="cls-1" d="M15.22,401.23l25,40.18h.17V401.23H52.72v59.9H39.55L14.63,421h-.16v40.1H2.13v-59.9Z"/><path class="cls-1" d="M63.71,419a29.8,29.8,0,0,1,5.79-10,26.35,26.35,0,0,1,9.27-6.71,30.24,30.24,0,0,1,12.37-2.43,30.25,30.25,0,0,1,12.42,2.43,26.52,26.52,0,0,1,9.22,6.71,29.8,29.8,0,0,1,5.79,10,37.55,37.55,0,0,1,2,12.46,36.28,36.28,0,0,1-2,12.21,29,29,0,0,1-5.79,9.85,26.48,26.48,0,0,1-9.22,6.59,30.74,30.74,0,0,1-12.42,2.39,30.74,30.74,0,0,1-12.37-2.39,26.31,26.31,0,0,1-9.27-6.59,29,29,0,0,1-5.79-9.85,36.29,36.29,0,0,1-2-12.21A37.55,37.55,0,0,1,63.71,419Zm12,19.8a19.58,19.58,0,0,0,2.81,6.42,14.28,14.28,0,0,0,5,4.57,15.32,15.32,0,0,0,7.55,1.72,15.35,15.35,0,0,0,7.55-1.72,14.28,14.28,0,0,0,5-4.57,19.58,19.58,0,0,0,2.81-6.42,30.29,30.29,0,0,0,.88-7.34,32.58,32.58,0,0,0-.88-7.63,20,20,0,0,0-2.81-6.59,14.2,14.2,0,0,0-5-4.61,15.35,15.35,0,0,0-7.55-1.72,15.32,15.32,0,0,0-7.55,1.72,14.2,14.2,0,0,0-5,4.61,20,20,0,0,0-2.81,6.59,32.58,32.58,0,0,0-.89,7.63A30.29,30.29,0,0,0,75.75,438.77Z"/><path class="cls-1" d="M129,419a30.14,30.14,0,0,1,5.79-10,26.53,26.53,0,0,1,9.27-6.71,32.83,32.83,0,0,1,24.79,0,26.65,26.65,0,0,1,9.23,6.71,30.14,30.14,0,0,1,5.79,10,37.55,37.55,0,0,1,2,12.46,36.28,36.28,0,0,1-2,12.21,29.35,29.35,0,0,1-5.79,9.85,26.61,26.61,0,0,1-9.23,6.59,33.34,33.34,0,0,1-24.79,0,26.49,26.49,0,0,1-9.27-6.59,29.35,29.35,0,0,1-5.79-9.85,36.28,36.28,0,0,1-2-12.21A37.55,37.55,0,0,1,129,419Zm12,19.8a19.79,19.79,0,0,0,2.81,6.42,14.4,14.4,0,0,0,5,4.57,17.41,17.41,0,0,0,15.09,0,14.4,14.4,0,0,0,5-4.57,20,20,0,0,0,2.81-6.42,30.29,30.29,0,0,0,.88-7.34,32.58,32.58,0,0,0-.88-7.63,20.45,20.45,0,0,0-2.81-6.59,14.32,14.32,0,0,0-5-4.61,17.41,17.41,0,0,0-15.09,0,14.32,14.32,0,0,0-5,4.61A20.23,20.23,0,0,0,141,423.8a32.58,32.58,0,0,0-.88,7.63A30.29,30.29,0,0,0,141,438.77Z"/><path class="cls-1" d="M227.12,401.23a19.4,19.4,0,0,1,7.26,1.3,16.83,16.83,0,0,1,5.54,3.57,15.61,15.61,0,0,1,3.52,5.24,16.87,16.87,0,0,1,1.22,6.42,18,18,0,0,1-2.23,9.14,14,14,0,0,1-7.25,5.87v.17a10.07,10.07,0,0,1,4,2.06,11.35,11.35,0,0,1,2.6,3.27,15.35,15.35,0,0,1,1.47,4.15,35.23,35.23,0,0,1,.63,4.53c.06.95.11,2.07.17,3.36s.15,2.6.29,3.94a27.87,27.87,0,0,0,.67,3.82,8.8,8.8,0,0,0,1.39,3.06H233.25a23.2,23.2,0,0,1-1.35-6.8q-.24-3.93-.75-7.55-.68-4.69-2.85-6.88c-1.46-1.45-3.83-2.18-7.13-2.18H208v23.41H194.83v-59.9Zm-4.69,27.1q4.53,0,6.79-2t2.27-6.54q0-4.36-2.27-6.33c-1.51-1.32-3.77-2-6.79-2H208v16.86Z"/><path class="cls-1" d="M299.43,456.56q-6.8,5.91-18.79,5.91-12.17,0-18.83-5.87t-6.67-18.12V401.23h13.17v37.25a27.14,27.14,0,0,0,.42,4.78,9.3,9.3,0,0,0,5.5,7.09,15.22,15.22,0,0,0,6.41,1.13q7,0,9.73-3.14t2.69-9.86V401.23h13.17v37.25Q306.23,450.65,299.43,456.56Z"/><path class="cls-1" d="M336.09,401.23l14,41.19h.17l13.25-41.19h18.54v59.9H369.73V418.68h-.16l-14.69,42.45H344.73l-14.68-42h-.16v42H317.55v-59.9Z"/><path class="cls-1" d="M406.81,401.23v59.9H393.64v-59.9Z"/><path class="cls-1" d="M217.48,355.4H181.11L48.82,34.44H32.56v321H0V15.33A15.35,15.35,0,0,1,15.33,0h57.8Z"/><path class="cls-1" d="M399.77,355.4H255.68L109.2,0H262.89V.75a76.69,76.69,0,0,1-10.61,152.64h-5.92l-13.74-34.45h19.66a42.24,42.24,0,0,0,42.24-42.81c-.29-23-19.59-41.69-43-41.69H161.69L278.06,321h89.16V.94h8.72a23.86,23.86,0,0,1,23.83,23.83Z"/></g></g></svg>