<svg xmlns="http://www.w3.org/2000/svg" viewBox="0 0 417.61 466.3"><defs><style>.cls-1{fill:#3f00fc;}</style></defs><g id="레이어_2" data-name="레이어 2"><g id="레이어_1-2" data-name="레이어 1"><path class="cls-1" d="M15.88,392l30.33,48.76h.2V392h15v72.68h-16L15.17,416H15v48.66H0V392Z"/><path class="cls-1" d="M75.12,413.53a36.35,36.35,0,0,1,7-12.16,32.09,32.09,0,0,1,11.25-8.15,36.82,36.82,0,0,1,15-3,36.73,36.73,0,0,1,15.06,3,32.27,32.27,0,0,1,11.2,8.15,36.35,36.35,0,0,1,7,12.16,45.4,45.4,0,0,1,2.44,15.12,43.81,43.81,0,0,1-2.44,14.8,35.42,35.42,0,0,1-7,12,32.13,32.13,0,0,1-11.2,8,37.05,37.05,0,0,1-15.06,2.9,37.15,37.15,0,0,1-15-2.9,32,32,0,0,1-11.25-8,35.42,35.42,0,0,1-7-12,43.81,43.81,0,0,1-2.45-14.8A45.4,45.4,0,0,1,75.12,413.53Zm14.6,24a24,24,0,0,0,3.41,7.79,17.55,17.55,0,0,0,6.11,5.55A18.65,18.65,0,0,0,108.4,453a18.65,18.65,0,0,0,9.16-2.08,17.55,17.55,0,0,0,6.11-5.55,24.23,24.23,0,0,0,3.41-7.79,37.07,37.07,0,0,0,1.07-8.9,40,40,0,0,0-1.07-9.27,24.75,24.75,0,0,0-3.41-8,17.4,17.4,0,0,0-6.11-5.6,18.65,18.65,0,0,0-9.16-2.08,18.65,18.65,0,0,0-9.16,2.08,17.4,17.4,0,0,0-6.11,5.6,24.53,24.53,0,0,0-3.41,8,40,40,0,0,0-1.07,9.27A37.07,37.07,0,0,0,89.72,437.55Z"/><path class="cls-1" d="M154.71,413.53a36.35,36.35,0,0,1,7-12.16A32.28,32.28,0,0,1,173,393.22a39.81,39.81,0,0,1,30.08,0,32.23,32.23,0,0,1,11.19,8.15,36.2,36.2,0,0,1,7,12.16,45.4,45.4,0,0,1,2.44,15.12,43.81,43.81,0,0,1-2.44,14.8,35.28,35.28,0,0,1-7,12,32.09,32.09,0,0,1-11.19,8,40.45,40.45,0,0,1-30.08,0,32.14,32.14,0,0,1-11.25-8,35.42,35.42,0,0,1-7-12,43.81,43.81,0,0,1-2.44-14.8A45.4,45.4,0,0,1,154.71,413.53Zm14.61,24a23.81,23.81,0,0,0,3.41,7.79,17.52,17.52,0,0,0,6.1,5.55,21.21,21.21,0,0,0,18.32,0,17.55,17.55,0,0,0,6.11-5.55,24,24,0,0,0,3.41-7.79,37.07,37.07,0,0,0,1.07-8.9,40,40,0,0,0-1.07-9.27,24.53,24.53,0,0,0-3.41-8,17.4,17.4,0,0,0-6.11-5.6,21.21,21.21,0,0,0-18.32,0,17.37,17.37,0,0,0-6.1,5.6,24.32,24.32,0,0,0-3.41,8,39.46,39.46,0,0,0-1.07,9.27A36.57,36.57,0,0,0,169.32,437.55Z"/><path class="cls-1" d="M274.2,392a23.44,23.44,0,0,1,8.81,1.58,20.2,20.2,0,0,1,6.72,4.33,18.76,18.76,0,0,1,4.27,6.36,20.45,20.45,0,0,1,1.48,7.78,21.84,21.84,0,0,1-2.7,11.1,16.91,16.91,0,0,1-8.8,7.12v.21a12.31,12.31,0,0,1,4.88,2.49,13.89,13.89,0,0,1,3.16,4,18.93,18.93,0,0,1,1.78,5,44.88,44.88,0,0,1,.76,5.5c.07,1.15.14,2.51.2,4.07s.19,3.15.36,4.78a32.57,32.57,0,0,0,.81,4.63,11,11,0,0,0,1.68,3.72h-16a28.2,28.2,0,0,1-1.62-8.25c-.21-3.19-.51-6.24-.92-9.16-.54-3.8-1.7-6.58-3.46-8.34s-4.65-2.65-8.65-2.65H251v28.4H235V392Zm-5.7,32.88c3.67,0,6.42-.82,8.25-2.44s2.75-4.28,2.75-7.94-.92-6.09-2.75-7.69-4.58-2.39-8.25-2.39H251v20.46Z"/><path class="cls-1" d="M331.4,392l17,50h.21l16.08-50h22.49v72.68h-15V413.17H372L354.2,464.68H341.89l-17.81-51h-.21v51h-15V392Z"/><path class="cls-1" d="M417.61,392v72.68h-16V392Z"/><path class="cls-1" d="M227,370.83H189L51,35.94H34V370.83H.07V16a16,16,0,0,1,16-16h60.3Z"/><path class="cls-1" d="M417.19,370.83H266.85L114,0H274.37V.78A80,80,0,0,1,263.3,160h-6.17l-14.34-35.93H263.3a44.1,44.1,0,0,0,44.08-44.68c-.32-24-20.44-43.49-44.88-43.49H168.78l121.42,299h93V1h9.11a24.89,24.89,0,0,1,24.86,24.87Z"/></g></g></svg>